<svg xmlns="http://www.w3.org/2000/svg" width="62" height="64" viewBox="0 0 62 64">
  <metadata><?xpacket begin="﻿" id="W5M0MpCehiHzreSzNTczkc9d"?>
<x:xmpmeta xmlns:x="adobe:ns:meta/" x:xmptk="Adobe XMP Core 5.6-c142 79.160924, 2017/07/13-01:06:39        ">
   <rdf:RDF xmlns:rdf="http://www.w3.org/1999/02/22-rdf-syntax-ns#">
      <rdf:Description rdf:about=""/>
   </rdf:RDF>
</x:xmpmeta>
                                                                                                    
                                                                                                    
                                                                                                    
                                                                                                    
                                                                                                    
                                                                                                    
                                                                                                    
                                                                                                    
                                                                                                    
                                                                                                    
                                                                                                    
                                                                                                    
                                                                                                    
                                                                                                    
                                                                                                    
                                                                                                    
                                                                                                    
                                                                                                    
                                                                                                    
                                                                                                    
                           
<?xpacket end="w"?></metadata>
<defs>
    <style>
      .cls-1 {
        fill: #fda95e;
        fill-rule: evenodd;
      }
    </style>
  </defs>
  <path id="иконка" class="cls-1" d="M17.186,53.328A25.348,25.348,0,0,1,8.237,35.882L6.078,6.638A0.312,0.312,0,0,1,6.456,6.31l3.68,0.805a23.525,23.525,0,0,0,5.02.542A23.17,23.17,0,0,0,29.12,3.027l1.308-.976a0.942,0.942,0,0,1,1.121,0l1.308,0.976A23.524,23.524,0,0,0,36.52,5.274a0.936,0.936,0,1,0,.828-1.68,21.568,21.568,0,0,1-3.371-2.067L32.669,0.55a2.829,2.829,0,0,0-3.362,0L28,1.527A21.312,21.312,0,0,1,15.156,5.784a21.665,21.665,0,0,1-4.62-.5L6.856,4.48a2.186,2.186,0,0,0-2.646,2.3L6.368,36.02a27.236,27.236,0,0,0,9.613,18.743,0.937,0.937,0,0,0,1.2-1.435h0Zm31.44-39a2.152,2.152,0,0,0-1.8-.434A29.538,29.538,0,0,1,31.91,9.879a1.825,1.825,0,0,0-1.843,0A29.537,29.537,0,0,1,15.156,13.9a2.105,2.105,0,0,0-1.776.437,1.438,1.438,0,0,0-.392,1.095l1.125,15.289-0.375,1.153H11.214a1.41,1.41,0,0,0-.829,2.55L12.428,35.9l-0.78,2.4a1.41,1.41,0,0,0,2.17,1.577l1.255-.913a19.075,19.075,0,0,0,8.175,11.073l6.717,4.235a1.947,1.947,0,0,0,2.061,0l6.747-4.228a19.061,19.061,0,0,0,8.2-11.045l1.2,0.875a1.41,1.41,0,0,0,2.17-1.576l-0.78-2.4,2.042-1.483a1.41,1.41,0,0,0-.829-2.55H48.258l-0.334-1.029,1.1-15.417a1.44,1.44,0,0,0-.394-1.094h0Zm-11.7,10.394L34.215,26.7a1.617,1.617,0,0,0-.589,1.812l1.036,3.187-2.712-1.97a1.615,1.615,0,0,0-1.9,0l-2.712,1.97,1.036-3.187a1.617,1.617,0,0,0-.589-1.812l-2.712-1.969h3.352a1.615,1.615,0,0,0,1.541-1.12L31,20.419l1.036,3.187a1.616,1.616,0,0,0,1.541,1.12h3.352ZM13.8,34.588l-1.162-.843h1.436a1.407,1.407,0,0,0,1.341-.974l0.444-1.365L16.3,32.771a1.407,1.407,0,0,0,1.341.974H19.08l-1.161.843a1.405,1.405,0,0,0-.512,1.576l0.444,1.365-1.161-.843a1.406,1.406,0,0,0-1.658,0l-1.161.843,0.444-1.365a1.406,1.406,0,0,0-.512-1.576h0ZM37.776,48.466L31.94,52.123V36.54a0.937,0.937,0,0,0-1.873,0V52.128l-5.82-3.669a17.194,17.194,0,0,1-7.112-9.135L17.9,39.881a1.41,1.41,0,0,0,2.17-1.576l-0.78-2.4,2.042-1.483a1.41,1.41,0,0,0-.829-2.55H17.981l-0.78-2.4a1.407,1.407,0,0,0-1.341-.974H15.83L14.891,15.77h0.265a31.451,31.451,0,0,0,14.911-3.745v6.249a1.615,1.615,0,0,0-.61.825l-1.22,3.754H24.29a1.62,1.62,0,0,0-.952,2.93L26.531,28.1l-1.22,3.752A1.62,1.62,0,0,0,27.8,33.667L31,31.347l3.194,2.32a1.62,1.62,0,0,0,2.493-1.811L35.465,28.1l3.193-2.319a1.62,1.62,0,0,0-.952-2.93H33.759L32.539,19.1a1.613,1.613,0,0,0-.6-0.818v-6.24a31.447,31.447,0,0,0,14.881,3.729l0.3,0L46.212,28.5c-0.025,0-.05,0-0.075,0a1.407,1.407,0,0,0-1.341.974l-0.78,2.4H41.491a1.41,1.41,0,0,0-.829,2.55L42.7,35.9l-0.78,2.4a1.41,1.41,0,0,0,2.17,1.576l0.848-.616a17.179,17.179,0,0,1-7.166,9.2h0ZM49.357,33.744l-1.161.843a1.406,1.406,0,0,0-.513,1.576l0.444,1.366-1.161-.844a1.406,1.406,0,0,0-1.658,0l-1.162.844,0.444-1.365a1.406,1.406,0,0,0-.512-1.577l-1.161-.843h1.436a1.407,1.407,0,0,0,1.341-.974l0.444-1.365,0.444,1.365a1.407,1.407,0,0,0,1.341.974h1.436ZM57.021,4.959a2.163,2.163,0,0,0-1.9-.482l-3.671.806a21.686,21.686,0,0,1-4.631.5,21.6,21.6,0,0,1-5.394-.678A0.937,0.937,0,0,0,40.96,6.92a23.518,23.518,0,0,0,5.861.736,23.558,23.558,0,0,0,5.033-.544l3.671-.806a0.312,0.312,0,0,1,.378.326L53.831,35.8A25.253,25.253,0,0,1,42.087,55.341L31.482,61.987a0.943,0.943,0,0,1-1,0l-9.75-6.148a0.937,0.937,0,0,0-1,1.585l9.75,6.147a2.825,2.825,0,0,0,2.991,0l10.605-6.646a27.134,27.134,0,0,0,12.617-21L57.772,6.766a2.164,2.164,0,0,0-.751-1.807h0ZM5.905,43.748H4.174a0.286,0.286,0,0,1-.273-0.2L3.367,41.9a0.287,0.287,0,0,0-.545,0L2.287,43.551a0.286,0.286,0,0,1-.272.2H0.284a0.287,0.287,0,0,0-.168.518l1.4,1.017a0.285,0.285,0,0,1,.1.319L1.085,47.249a0.286,0.286,0,0,0,.441.32l1.4-1.017a0.286,0.286,0,0,1,.337,0l1.4,1.017a0.286,0.286,0,0,0,.441-0.32L4.569,45.6a0.285,0.285,0,0,1,.1-0.319l1.4-1.017A0.287,0.287,0,0,0,5.905,43.748Zm55.807,0H59.981a0.287,0.287,0,0,1-.273-0.2L59.174,41.9a0.287,0.287,0,0,0-.545,0l-0.535,1.647a0.286,0.286,0,0,1-.273.2H56.091a0.287,0.287,0,0,0-.168.518l1.4,1.017a0.286,0.286,0,0,1,.1.319l-0.535,1.647a0.286,0.286,0,0,0,.441.32l1.4-1.017a0.286,0.286,0,0,1,.337,0l1.4,1.017a0.286,0.286,0,0,0,.441-0.32L60.376,45.6a0.285,0.285,0,0,1,.1-0.319l1.4-1.017a0.287,0.287,0,0,0-.168-0.518h0Z"/>
</svg>
