<svg xmlns="http://www.w3.org/2000/svg" width="64" height="42" viewBox="0 0 64 42">
  <metadata><?xpacket begin="﻿" id="W5M0MpCehiHzreSzNTczkc9d"?>
<x:xmpmeta xmlns:x="adobe:ns:meta/" x:xmptk="Adobe XMP Core 5.6-c142 79.160924, 2017/07/13-01:06:39        ">
   <rdf:RDF xmlns:rdf="http://www.w3.org/1999/02/22-rdf-syntax-ns#">
      <rdf:Description rdf:about=""/>
   </rdf:RDF>
</x:xmpmeta>
                                                                                                    
                                                                                                    
                                                                                                    
                                                                                                    
                                                                                                    
                                                                                                    
                                                                                                    
                                                                                                    
                                                                                                    
                                                                                                    
                                                                                                    
                                                                                                    
                                                                                                    
                                                                                                    
                                                                                                    
                                                                                                    
                                                                                                    
                                                                                                    
                                                                                                    
                                                                                                    
                           
<?xpacket end="w"?></metadata>
<defs>
    <style>
      .cls-1 {
        fill: #fda95e;
        fill-rule: evenodd;
      }
    </style>
  </defs>
  <path id="иконка" class="cls-1" d="M63.063,10.861A0.939,0.939,0,0,0,64,9.919V4.561a0.939,0.939,0,0,0-1.258-.886A48.756,48.756,0,0,1,47.054,6.325c-5.4.062-10.365-.711-13.618-2.126l-0.014-.006A43.052,43.052,0,0,0,12.1,1.238,49.181,49.181,0,0,0,.632,3.67,0.941,0.941,0,0,0,0,4.561v33.8a0.939,0.939,0,0,0,1.243.89,47.291,47.291,0,0,1,11.042-2.339A41.209,41.209,0,0,1,32.7,39.725C36.2,41.248,41.13,42,46.367,42a51.542,51.542,0,0,0,17.016-2.759A0.942,0.942,0,0,0,64,38.357V14.246a0.938,0.938,0,1,0-1.875,0V37.689a49.379,49.379,0,0,1-15.071,2.432c-5.4.066-10.365-.711-13.618-2.127l-0.014-.006A43.051,43.051,0,0,0,12.1,35.034,49.9,49.9,0,0,0,1.875,37.056V5.237A47.8,47.8,0,0,1,12.286,3.112,41.21,41.21,0,0,1,32.7,5.929C39.769,9,52.674,8.939,62.125,5.878V9.919a0.939,0.939,0,0,0,.937.942h0ZM58.688,32.1a0.94,0.94,0,0,0,.938-0.942V14.337a0.94,0.94,0,0,0-.938-0.942A3.011,3.011,0,0,1,55.719,10.9a0.939,0.939,0,0,0-1.055-.767c-8.61,1.233-17.4.508-22.937-1.891l-0.013-.005a38.77,38.77,0,0,0-19.171-2.63l-0.024,0c-1.2.117-2.372,0.27-3.493,0.457a0.941,0.941,0,0,0-.764,1.124,3.031,3.031,0,0,1-2.95,3.655,0.939,0.939,0,0,0-.937.942v8.948a0.938,0.938,0,1,0,1.875,0v-8.1A4.914,4.914,0,0,0,10.2,7.82c0-.009,0-0.02,0-0.03,0.812-.12,1.647-0.222,2.491-0.3l0.051,0A36.91,36.91,0,0,1,30.991,9.975c5.659,2.45,14.454,3.253,23.122,2.135a4.886,4.886,0,0,0,3.637,3.079V30.313A4.913,4.913,0,0,0,53.8,35.132c0,0.017,0,.034,0,0.051a49.686,49.686,0,0,1-6.8.545c-4.81.057-9.12-.586-11.826-1.764L35.1,33.931a46.587,46.587,0,0,0-18.016-3.556,51.907,51.907,0,0,0-5.426.289c-0.592.057-1.183,0.123-1.764,0.2A4.884,4.884,0,0,0,6.25,27.767V25.132a0.938,0.938,0,1,0-1.875,0v3.486a0.939,0.939,0,0,0,.937.942,3.01,3.01,0,0,1,2.97,2.5,0.939,0.939,0,0,0,1.053.771c0.815-.114,1.657-0.214,2.51-0.3a50.13,50.13,0,0,1,5.237-.278,44.725,44.725,0,0,1,17.3,3.412l0.05,0.021c2.823,1.229,7.167,1.924,11.992,1.924q0.3,0,.6,0a51.172,51.172,0,0,0,7.957-.711,0.941,0.941,0,0,0,.76-1.126,3.072,3.072,0,0,1-.067-0.641A3.025,3.025,0,0,1,58.688,32.1h0Zm-32.1-8.452a0.942,0.942,0,0,0,0,1.884h1.532v1.919a0.938,0.938,0,1,0,1.875,0V25.537h4.824a0.942,0.942,0,0,0,0-1.884H29.994v-1.82h4.824a3.421,3.421,0,0,0,0-6.843H29.057a0.94,0.94,0,0,0-.937.942V19.95H26.587a0.941,0.941,0,0,0,0,1.883h1.532v1.82H26.587Zm3.407-6.78h4.824a1.538,1.538,0,0,1,0,3.076H29.994V16.873Zm-9.842,1.69a3.464,3.464,0,1,0-3.463,3.478,3.474,3.474,0,0,0,3.464-3.478h0Zm-5.052,0a1.588,1.588,0,1,1,1.589,1.595A1.594,1.594,0,0,1,15.1,18.563h0ZM50.65,24.417A3.464,3.464,0,1,0,47.187,27.9,3.474,3.474,0,0,0,50.65,24.417Zm-5.052,0a1.588,1.588,0,1,1,1.588,1.6A1.594,1.594,0,0,1,45.6,24.417Z"/>
</svg>
