<svg xmlns="http://www.w3.org/2000/svg" width="66" height="56" viewBox="0 0 66 56">
  <metadata><?xpacket begin="﻿" id="W5M0MpCehiHzreSzNTczkc9d"?>
<x:xmpmeta xmlns:x="adobe:ns:meta/" x:xmptk="Adobe XMP Core 5.6-c142 79.160924, 2017/07/13-01:06:39        ">
   <rdf:RDF xmlns:rdf="http://www.w3.org/1999/02/22-rdf-syntax-ns#">
      <rdf:Description rdf:about=""/>
   </rdf:RDF>
</x:xmpmeta>
                                                                                                    
                                                                                                    
                                                                                                    
                                                                                                    
                                                                                                    
                                                                                                    
                                                                                                    
                                                                                                    
                                                                                                    
                                                                                                    
                                                                                                    
                                                                                                    
                                                                                                    
                                                                                                    
                                                                                                    
                                                                                                    
                                                                                                    
                                                                                                    
                                                                                                    
                                                                                                    
                           
<?xpacket end="w"?></metadata>
<defs>
    <style>
      .cls-1 {
        fill: #fda95e;
        fill-rule: evenodd;
      }
    </style>
  </defs>
  <path id="иконка" class="cls-1" d="M64.406,21.69a1.24,1.24,0,0,0-1.5.143c-1.1,1-2.217,1.926-3.372,2.79q0.381-1.264.659-2.481a11.026,11.026,0,0,0,4.524-5.357,16.9,16.9,0,0,0,1.258-7.329,1.255,1.255,0,0,0-2.348-.567,44.075,44.075,0,0,1-2.385,3.75c-0.006-1.033-.05-2.037-0.133-3,0-.019,0-0.038,0-0.057A43.174,43.174,0,0,0,59.5.7a0.968,0.968,0,0,0-1.2-.662,0.982,0.982,0,0,0-.655,1.217,41.529,41.529,0,0,1,1.224,5.631,43.915,43.915,0,0,0-3.3-2.919,1.246,1.246,0,0,0-1.475-.062,1.277,1.277,0,0,0-.521,1.4,25.082,25.082,0,0,0,5.623,10.687c-0.062.822-.158,1.67-0.286,2.538a42.789,42.789,0,0,0-2.275-3.632,1.252,1.252,0,0,0-1.385-.486,1.269,1.269,0,0,0-.9,1.165,23.821,23.821,0,0,0,2.262,11.6q-0.439,1.124-.987,2.285a42.327,42.327,0,0,0-1.139-4.115,1.262,1.262,0,0,0-1.184-.868h-0.01a1.258,1.258,0,0,0-1.185.846,23.623,23.623,0,0,0-1.151,11.7q-0.749.955-1.613,1.911a41.472,41.472,0,0,0,.1-4.285,1.272,1.272,0,0,0-.883-1.18,1.249,1.249,0,0,0-1.388.457A24.316,24.316,0,0,0,42.606,44.88a18.311,18.311,0,0,1-5.38,3.036A18.231,18.231,0,0,0,33,50.068a18.233,18.233,0,0,0-4.225-2.151,18.307,18.307,0,0,1-5.38-3.036,24.315,24.315,0,0,0-4.566-10.945,1.251,1.251,0,0,0-1.388-.457,1.272,1.272,0,0,0-.883,1.18,41.5,41.5,0,0,0,.1,4.285q-0.863-.954-1.612-1.911a23.623,23.623,0,0,0-1.151-11.7,1.258,1.258,0,0,0-1.185-.846H12.7a1.262,1.262,0,0,0-1.184.868,42.327,42.327,0,0,0-1.139,4.115Q9.833,28.3,9.393,27.178a23.821,23.821,0,0,0,2.262-11.6,1.269,1.269,0,0,0-.9-1.165,1.252,1.252,0,0,0-1.385.486,42.683,42.683,0,0,0-2.275,3.632c-0.129-.868-0.224-1.716-0.286-2.538A25.08,25.08,0,0,0,12.431,5.3a1.277,1.277,0,0,0-.521-1.4,1.246,1.246,0,0,0-1.475.062,43.906,43.906,0,0,0-3.3,2.919A41.523,41.523,0,0,1,8.36,1.256,0.982,0.982,0,0,0,7.706.039,0.967,0.967,0,0,0,6.5.7,43.186,43.186,0,0,0,4.889,9.579c0,0.02,0,.039,0,0.057-0.083.965-.128,1.968-0.133,3A44.062,44.062,0,0,1,2.369,8.887a1.256,1.256,0,0,0-2.348.568A16.9,16.9,0,0,0,1.28,16.784,11.025,11.025,0,0,0,5.8,22.142q0.278,1.215.659,2.481c-1.154-.864-2.271-1.787-3.372-2.79a1.241,1.241,0,0,0-1.5-.143A1.271,1.271,0,0,0,1.03,23.1c1.119,4.353,4.367,9.111,9.152,10.192q0.613,1.076,1.336,2.168c-1.35-.483-2.681-1.033-4.021-1.663a1.243,1.243,0,0,0-1.471.308,1.276,1.276,0,0,0-.133,1.511C8.1,39.261,12.275,42.7,16.9,42.7c0.227,0,.455-0.009.684-0.026a40.408,40.408,0,0,0,4.327,3.53,20.562,20.562,0,0,0,6.177,3.547,16.727,16.727,0,0,1,3.223,1.547c-1,.776-2.161,1.751-3.537,3a0.987,0.987,0,0,0-.076,1.383,0.96,0.96,0,0,0,1.367.076c1.6-1.444,2.871-2.5,3.933-3.294,1.062,0.794,2.337,1.85,3.933,3.294a0.959,0.959,0,0,0,1.367-.076,0.987,0.987,0,0,0-.076-1.383c-1.376-1.246-2.535-2.22-3.537-3a16.733,16.733,0,0,1,3.223-1.547A20.56,20.56,0,0,0,44.087,46.2a40.378,40.378,0,0,0,4.327-3.53c0.229,0.017.457,0.026,0.684,0.026,4.626,0,8.8-3.436,11.008-7.084a1.276,1.276,0,0,0-.133-1.511,1.242,1.242,0,0,0-1.471-.308c-1.34.628-2.672,1.179-4.021,1.663q0.723-1.09,1.336-2.168C60.6,32.208,63.85,27.449,64.969,23.1A1.269,1.269,0,0,0,64.406,21.69Zm-3.621-2.64c0.027-.173.053-0.346,0.077-0.517,0.015-.106.028-0.21,0.042-0.315,0.021-.16.042-0.321,0.061-0.48,0.013-.107.025-0.214,0.037-0.32,0.017-.156.034-0.311,0.049-0.465,0.011-.106.02-0.211,0.03-0.316q0.021-.232.039-0.461c0-.056.01-0.113,0.014-0.17a44.658,44.658,0,0,0,2.821-3.9,12.022,12.022,0,0,1-3.206,7.19C60.761,19.211,60.772,19.131,60.785,19.05ZM2.045,12.1a44.614,44.614,0,0,0,2.821,3.9c0,0.056.01,0.113,0.014,0.17Q4.9,16.4,4.919,16.636c0.01,0.105.019,0.21,0.03,0.316Q4.971,17.184,5,17.418c0.012,0.107.024,0.213,0.037,0.32,0.019,0.159.04,0.32,0.062,0.48,0.014,0.105.027,0.209,0.042,0.315,0.024,0.171.051,0.344,0.077,0.517,0.013,0.081.023,0.161,0.036,0.242A12.022,12.022,0,0,1,2.045,12.1ZM9.717,17.9a22.122,22.122,0,0,1-1.268,6.588l-0.067-.216C8.339,24.13,8.3,23.991,8.256,23.853c-0.03-.1-0.059-0.2-0.088-0.3-0.038-.133-0.076-0.266-0.112-0.4-0.029-.1-0.056-0.209-0.084-0.312-0.034-.128-0.067-0.255-0.1-0.383-0.027-.105-0.053-0.211-0.078-0.316-0.03-.124-0.059-0.247-0.088-0.369-0.012-.054-0.024-0.107-0.036-0.161A42.348,42.348,0,0,1,9.717,17.9ZM6.693,12.42c0-.11,0-0.22.006-0.33,0-.141.006-0.283,0.01-0.424q0.005-.165.012-0.329c0.006-.137.012-0.273,0.019-0.409,0.006-.111.012-0.221,0.019-0.331,0.008-.131.017-0.261,0.027-0.392,0-.058.009-0.117,0.014-0.176,1-1.087,2.018-2.093,3.079-3.041A23.261,23.261,0,0,1,6.691,13.1c0-.082,0-0.163,0-0.244C6.691,12.711,6.691,12.565,6.693,12.42ZM3.733,24.963a45.669,45.669,0,0,0,3.807,2.8c0.02,0.053.043,0.107,0.064,0.16q0.079,0.2.162,0.406c0.041,0.1.082,0.2,0.124,0.3,0.057,0.136.115,0.273,0.174,0.411,0.043,0.1.086,0.2,0.13,0.3,0.063,0.143.127,0.285,0.192,0.428,0.043,0.1.086,0.191,0.131,0.287,0.072,0.155.147,0.311,0.222,0.467,0.034,0.07.065,0.14,0.1,0.211A11.771,11.771,0,0,1,3.733,24.963Zm8.979,3.14a21.834,21.834,0,0,1,.664,6.634l-0.137-.2c-0.074-.111-0.148-0.221-0.221-0.333-0.061-.093-0.121-0.186-0.181-0.279-0.072-.111-0.143-0.222-0.213-0.334-0.059-.093-0.116-0.186-0.174-0.28q-0.1-.165-0.2-0.329c-0.056-.093-0.111-0.187-0.166-0.28q-0.1-.165-0.191-0.329l-0.079-.139A42.018,42.018,0,0,1,12.712,28.1Zm-3.7,8.489a46.35,46.35,0,0,0,4.441,1.553c0.036,0.045.074,0.092,0.111,0.139,0.089,0.113.18,0.228,0.272,0.341l0.206,0.253c0.1,0.116.192,0.232,0.29,0.348,0.069,0.083.138,0.165,0.208,0.247,0.1,0.12.209,0.241,0.314,0.361l0.2,0.231c0.116,0.131.235,0.261,0.354,0.392,0.051,0.056.1,0.112,0.152,0.167A11.706,11.706,0,0,1,9.008,36.592Zm11.9,6.4c-0.107-.086-0.214-0.173-0.319-0.261-0.086-.071-0.171-0.143-0.256-0.215-0.1-.087-0.207-0.175-0.309-0.264l-0.247-.215-0.3-.266-0.237-.216c-0.1-.09-0.194-0.179-0.289-0.268l-0.117-.111a41.179,41.179,0,0,1-.346-4.234,22.563,22.563,0,0,1,2.608,6.2Zm26.246-1.815-0.117.111c-0.1.09-.192,0.179-0.289,0.268l-0.237.216c-0.1.088-.2,0.177-0.3,0.266l-0.247.215c-0.1.088-.2,0.177-0.308,0.264-0.085.072-.17,0.144-0.256,0.215-0.105.088-.212,0.175-0.319,0.261l-0.19.155a22.564,22.564,0,0,1,2.609-6.2A41.236,41.236,0,0,1,47.159,41.177ZM53.288,28.1a41.989,41.989,0,0,1,.9,4.126l-0.079.139q-0.094.164-.191,0.329c-0.055.093-.11,0.186-0.166,0.28-0.066.109-.133,0.219-0.2,0.329-0.057.094-.115,0.187-0.174,0.28-0.07.111-.141,0.222-0.212,0.334-0.06.093-.12,0.187-0.181,0.279-0.073.111-.147,0.221-0.221,0.333l-0.137.2A21.836,21.836,0,0,1,53.288,28.1Zm3.7,8.489a11.706,11.706,0,0,1-6.551,4.031l0.169-.186c0.112-.123.224-0.245,0.334-0.368l0.215-.245c0.1-.117.2-0.233,0.3-0.35,0.072-.084.143-0.168,0.214-0.252l0.285-.342,0.208-.256c0.091-.113.181-0.227,0.27-0.34l0.111-.139A46.371,46.371,0,0,0,56.992,36.592Zm-0.87-29.6C57.183,7.936,58.2,8.943,59.2,10.03c0,0.059.01,0.118,0.014,0.176,0.009,0.13.018,0.261,0.026,0.392,0.007,0.109.013,0.22,0.019,0.331,0.007,0.136.013,0.273,0.019,0.41,0,0.109.009,0.219,0.012,0.329,0,0.141.007,0.282,0.01,0.424,0,0.11,0,.22.006,0.33,0,0.145,0,.291,0,0.436,0,0.081,0,.162,0,0.244A23.253,23.253,0,0,1,56.122,6.989ZM56.283,17.9a42.338,42.338,0,0,1,2.047,3.713c-0.012.053-.024,0.107-0.036,0.16-0.028.123-.058,0.246-0.088,0.369-0.026.106-.051,0.211-0.078,0.317q-0.048.19-.1,0.382c-0.027.1-.055,0.207-0.084,0.312-0.036.132-.074,0.265-0.112,0.4-0.029.1-.058,0.2-0.088,0.3-0.041.139-.083,0.278-0.126,0.417-0.022.072-.044,0.144-0.067,0.216A22.118,22.118,0,0,1,56.283,17.9ZM57.161,30.74c0.034-.071.066-0.14,0.1-0.21,0.075-.157.15-0.312,0.222-0.468,0.044-.1.087-0.191,0.131-0.287,0.065-.143.13-0.285,0.192-0.428,0.044-.1.087-0.2,0.13-0.3,0.059-.138.118-0.275,0.174-0.411,0.042-.1.083-0.2,0.124-0.3q0.083-.2.162-0.406c0.021-.054.044-0.107,0.064-0.16a45.67,45.67,0,0,0,3.807-2.8A11.773,11.773,0,0,1,57.161,30.74Zm-7-11.112a1.681,1.681,0,0,0-.254-0.93l-4.981-7.961A1.658,1.658,0,0,0,44.3,10.15l-0.025-.012a1.634,1.634,0,0,0-.739-0.178H22.468a1.639,1.639,0,0,0-.741.179L21.7,10.15a1.653,1.653,0,0,0-.632.587l-1.34,2.142a0.986,0.986,0,0,0,.3,1.351,0.962,0.962,0,0,0,1.336-.3l0.726-1.16L25.8,18.655H18.41l0.523-.835a0.986,0.986,0,0,0-.3-1.352,0.962,0.962,0,0,0-1.336.3L16.092,18.7a1.681,1.681,0,0,0-.254.93s0,0,0,.007,0,0.008,0,.011c0,0.02,0,.041,0,0.06s0,0.031,0,.046a1.68,1.68,0,0,0,.343.872l15.512,20a1.634,1.634,0,0,0,1.009.611l0.035,0.006a1.633,1.633,0,0,0,.256.023,1.7,1.7,0,0,0,.254-0.022l0.038-.007a1.634,1.634,0,0,0,1.008-.611l15.512-20a1.68,1.68,0,0,0,.343-0.872c0-.015,0-0.03,0-0.046s0-.04,0-0.06c0,0,0-.007,0-0.011A0.045,0.045,0,0,0,50.162,19.628Zm-8.019-7.709-3.71,5.892-3.71-5.892h7.421Zm-5.475,6.736h-7.42l3.71-5.893ZM23.857,11.919h7.337l-3.668,5.825Zm-5.215,8.694h8.177l4.07,15.793ZM35.1,36.424l1.983-7.756a0.98,0.98,0,0,0-.7-1.194,0.967,0.967,0,0,0-1.18.7L33,36.818l-4.176-16.2h8.32l-0.8,3.109a0.981,0.981,0,0,0,.695,1.194,0.941,0.941,0,0,0,.243.032,0.971,0.971,0,0,0,.937-0.734l0.921-3.6h8.218Zm5.1-17.769,3.708-5.888,3.684,5.888H40.2Z"/>
</svg>
