<svg xmlns="http://www.w3.org/2000/svg" width="69" height="50" viewBox="0 0 69 50">
  <metadata><?xpacket begin="﻿" id="W5M0MpCehiHzreSzNTczkc9d"?>
<x:xmpmeta xmlns:x="adobe:ns:meta/" x:xmptk="Adobe XMP Core 5.6-c142 79.160924, 2017/07/13-01:06:39        ">
   <rdf:RDF xmlns:rdf="http://www.w3.org/1999/02/22-rdf-syntax-ns#">
      <rdf:Description rdf:about=""/>
   </rdf:RDF>
</x:xmpmeta>
                                                                                                    
                                                                                                    
                                                                                                    
                                                                                                    
                                                                                                    
                                                                                                    
                                                                                                    
                                                                                                    
                                                                                                    
                                                                                                    
                                                                                                    
                                                                                                    
                                                                                                    
                                                                                                    
                                                                                                    
                                                                                                    
                                                                                                    
                                                                                                    
                                                                                                    
                                                                                                    
                           
<?xpacket end="w"?></metadata>
<defs>
    <style>
      .cls-1 {
        fill: #fda95e;
        fill-rule: evenodd;
      }
    </style>
  </defs>
  <path id="иконка" class="cls-1" d="M30.855,39.991h-5.04a1.006,1.006,0,0,0-1,.83l-0.449,2.647h-1.39a0.993,0.993,0,1,0,0,1.986h1.053L23.6,48.014H19.865l-1.221-7.193a1,1,0,0,0-1-.83c-5.884,0-10.811-3.911-11.214-8.9a1.827,1.827,0,0,0-1.822-1.659H3.284a0.346,0.346,0,0,1-.345-0.288L2.023,23.659A0.339,0.339,0,0,1,2.1,23.378a0.349,0.349,0,0,1,.267-0.121H4.6a1.806,1.806,0,0,0,1.825-1.71,14.649,14.649,0,0,1,1.413-5.722A0.986,0.986,0,0,0,7.351,14.5a1.019,1.019,0,0,0-1.345.475,16.577,16.577,0,0,0-1.595,6.293H2.369a2.385,2.385,0,0,0-1.806.82,2.3,2.3,0,0,0-.535,1.887l0.916,5.482a2.35,2.35,0,0,0,2.34,1.953H4.433a11.017,11.017,0,0,0,4.2,7.486,14.241,14.241,0,0,0,8.155,3.053l1.225,7.218a1,1,0,0,0,1,.829h9.8a1.006,1.006,0,0,0,1-.823l1.273-7.225a0.991,0.991,0,0,0-.225-1.959h0ZM27.96,48.014H25.647l1.024-6.038h2.353ZM68.975,23.049a1.011,1.011,0,0,0-1.195-.771,2.927,2.927,0,0,1-1.95-.288,3.869,3.869,0,0,0,1.279-2.935,3.22,3.22,0,1,0-6.378,0,3.87,3.87,0,0,0,1.275,2.931,3.023,3.023,0,0,1-1.173.343,3.9,3.9,0,0,1-2.726-1.073c-0.3-5.464-3.041-10.125-7.978-13.528C45.285,4.391,38.584,2.552,31.26,2.552A38.228,38.228,0,0,0,19.489,4.305l-4.37-3.731a2.38,2.38,0,0,0-2.54-.36,2.3,2.3,0,0,0-1.388,2.12V8.619a20.04,20.04,0,0,0-2.385,2.224,0.981,0.981,0,0,0,.082,1.4,1.023,1.023,0,0,0,1.427-.081,18.31,18.31,0,0,1,2.5-2.278A0.985,0.985,0,0,0,13.212,9.1V2.335a0.331,0.331,0,0,1,.2-0.314,0.341,0.341,0,0,1,.376.053l4.808,4.1a1.021,1.021,0,0,0,1,.188A34.437,34.437,0,0,1,28.53,4.629a9.242,9.242,0,0,0-3.671,6.386H23.364a0.993,0.993,0,1,0,0,1.985H45.146a0.993,0.993,0,1,0,0-1.985H43.651a9.174,9.174,0,0,0-2.343-5.177c9.053,2.538,14.806,8.6,14.806,16.428v4.356H51.68a2.354,2.354,0,0,0-2.372,2.329v2.675a2.288,2.288,0,0,0,.433,1.337,2.288,2.288,0,0,0-.433,1.337v2.674a2.292,2.292,0,0,0,.433,1.338,2.29,2.29,0,0,0-.388.889,12.8,12.8,0,0,1-4.479.792,1.006,1.006,0,0,0-1,.83l-0.449,2.647H42.062a0.993,0.993,0,1,0,0,1.986H43.09l-0.435,2.561H38.923L37.7,40.821a1.006,1.006,0,0,0-1-.83H35.653a0.993,0.993,0,1,0,0,1.986h0.2l1.22,7.193a1.006,1.006,0,0,0,1,.829H47.6a1.009,1.009,0,0,0,.97-0.715l0.742-2.5V47.67A2.354,2.354,0,0,0,51.68,50h6.873a0.993,0.993,0,1,0,0-1.985H51.68a0.348,0.348,0,0,1-.351-0.344V45a0.348,0.348,0,0,1,.351-0.344H63.932a0.348,0.348,0,0,1,.351.344V47.67a0.348,0.348,0,0,1-.351.344h-0.61a0.993,0.993,0,1,0,0,1.985h0.61A2.354,2.354,0,0,0,66.3,47.67V45a2.286,2.286,0,0,0-.433-1.337,2.287,2.287,0,0,0,.433-1.337V39.647a2.289,2.289,0,0,0-.433-1.337,2.288,2.288,0,0,0,.433-1.337V34.3a2.285,2.285,0,0,0-.433-1.337,2.287,2.287,0,0,0,.433-1.337V28.95a2.354,2.354,0,0,0-2.372-2.329h-5.8V23.674a5.317,5.317,0,0,0,2.493.649c0.127,0,.255-0.006.382-0.015a5.376,5.376,0,0,0,2.908-1.2,5.27,5.27,0,0,0,3.275,1.214,5.009,5.009,0,0,0,1-.1,0.994,0.994,0,0,0,.785-1.174h0ZM31.21,11.015a3.227,3.227,0,0,1,6.091,0H31.21Zm8.177,0a5.249,5.249,0,0,0-10.264,0H26.9a7.447,7.447,0,0,1,14.718,0H39.387ZM64.283,34.3v2.674a0.348,0.348,0,0,1-.351.345H51.68a0.348,0.348,0,0,1-.351-0.345V34.3a0.348,0.348,0,0,1,.351-0.345H63.932A0.348,0.348,0,0,1,64.283,34.3ZM46.838,48.014H44.705l1.029-6.061a14.863,14.863,0,0,0,3.049-.488Zm4.842-5.348a0.348,0.348,0,0,1-.351-0.345V39.647A0.349,0.349,0,0,1,51.68,39.3H63.932a0.349,0.349,0,0,1,.351.345v2.673a0.348,0.348,0,0,1-.351.345H51.68Zm12.6-13.716v2.675a0.347,0.347,0,0,1-.351.343H51.68a0.347,0.347,0,0,1-.351-0.343V28.95a0.348,0.348,0,0,1,.351-0.344H63.932A0.348,0.348,0,0,1,64.283,28.95ZM63.921,17.374a1.519,1.519,0,0,1,1.167,1.682,1.533,1.533,0,0,1-1.141,1.679h-0.06a1.539,1.539,0,0,1-1.134-1.679A1.519,1.519,0,0,1,63.921,17.374ZM13.93,29.322a0.982,0.982,0,0,0-.317,1.368A1.021,1.021,0,0,0,15.007,31a5.225,5.225,0,0,0,1.685-7.273,5.4,5.4,0,0,0-4.213-2.456,0.993,0.993,0,1,0-.126,1.981,3.369,3.369,0,0,1,2.628,1.531A3.258,3.258,0,0,1,13.93,29.322Z"/>
</svg>
