<svg xmlns="http://www.w3.org/2000/svg" width="71" height="49" viewBox="0 0 71 49">
  <metadata><?xpacket begin="﻿" id="W5M0MpCehiHzreSzNTczkc9d"?>
<x:xmpmeta xmlns:x="adobe:ns:meta/" x:xmptk="Adobe XMP Core 5.6-c142 79.160924, 2017/07/13-01:06:39        ">
   <rdf:RDF xmlns:rdf="http://www.w3.org/1999/02/22-rdf-syntax-ns#">
      <rdf:Description rdf:about=""/>
   </rdf:RDF>
</x:xmpmeta>
                                                                                                    
                                                                                                    
                                                                                                    
                                                                                                    
                                                                                                    
                                                                                                    
                                                                                                    
                                                                                                    
                                                                                                    
                                                                                                    
                                                                                                    
                                                                                                    
                                                                                                    
                                                                                                    
                                                                                                    
                                                                                                    
                                                                                                    
                                                                                                    
                                                                                                    
                                                                                                    
                           
<?xpacket end="w"?></metadata>
<defs>
    <style>
      .cls-1 {
        fill: #fda95e;
        fill-rule: evenodd;
      }
    </style>
  </defs>
  <path id="иконка" class="cls-1" d="M69.017,0H66.723a2.262,2.262,0,0,0-2.242,1.98L61.026,3.854l-0.005,0-0.172.092A16.206,16.206,0,0,1,58.07,5.137a13.011,13.011,0,0,1-4.676.776H44.759a1.038,1.038,0,1,0,0,2.077H53.4A14.909,14.909,0,0,0,58.7,7.114a17.963,17.963,0,0,0,1.775-.674v3.943a1.04,1.04,0,0,0,2.079,0v-5l1.9-1.032V20.848l-2.621-1.421a18.3,18.3,0,0,0-3.137-1.34,14.906,14.906,0,0,0-5.306-.875H33.8a9.58,9.58,0,0,0-2.6.361c-0.021,0-.042.011-0.062,0.018A9.622,9.622,0,0,0,25.553,21.9a1.042,1.042,0,0,0-.265.476,9.538,9.538,0,0,0-.806,6.694,1.037,1.037,0,0,0,.181.642A9.628,9.628,0,0,0,28.8,34.964a1.039,1.039,0,0,0,.582.326,9.563,9.563,0,0,0,6.742.793,1.032,1.032,0,0,0,.455-0.125,9.567,9.567,0,0,0,3.172-16.669H51.061a18.608,18.608,0,0,1,1.56,7.5A18.825,18.825,0,1,1,33.8,7.989H40.6a1.038,1.038,0,1,0,0-2.077H33.8A20.87,20.87,0,0,0,14.979,35.879h-2.5A1.774,1.774,0,0,0,10.336,34.3l-0.015,0L1.9,36.237A2.282,2.282,0,0,0,0,38.25v6.764a2.282,2.282,0,0,0,1.9,2.013l8.421,1.929,0.015,0a1.792,1.792,0,0,0,.375.04,1.774,1.774,0,0,0,1.716-1.331h2.946a1.039,1.039,0,1,0,0-2.077H12.486V37.956H16.14a21.039,21.039,0,0,0,8.572,7.636h-5.18a1.039,1.039,0,1,0,0,2.077H33.8A20.915,20.915,0,0,0,54.7,26.791a20.685,20.685,0,0,0-1.392-7.5h0.085a13.014,13.014,0,0,1,4.677.776,16.275,16.275,0,0,1,2.779,1.188l3.632,1.969A2.262,2.262,0,0,0,66.723,25.2h2.294A2.019,2.019,0,0,0,71,22.944V2.258A2.019,2.019,0,0,0,69.017,0ZM33.8,19.289a7.467,7.467,0,0,1,3.243.737,3.564,3.564,0,0,1-1,3.088l-0.023.024-0.251.268a3.891,3.891,0,0,0-.92-0.39l-0.014-.447a5.63,5.63,0,0,0-1.072-3.279H33.8Zm-2.5.428a3.567,3.567,0,0,1,1.458,2.87c0,0.011,0,.022,0,0.034l0.013,0.388a3.912,3.912,0,0,0-.905.372l-0.347-.325a5.649,5.649,0,0,0-3.04-1.555A7.523,7.523,0,0,1,31.3,19.717ZM30,29.058a5.632,5.632,0,0,0-1.551,3,7.51,7.51,0,0,1-1.756-2.827,3.576,3.576,0,0,1,2.838-1.407h0.033L30,27.805a3.879,3.879,0,0,0,.352.873Zm0.018-3.331-0.5.015a5.64,5.64,0,0,0-3.229,1.032,7.449,7.449,0,0,1,.747-3.244,3.575,3.575,0,0,1,3.027,1.005l0.024,0.023,0.307,0.288A3.867,3.867,0,0,0,30.019,25.727Zm0.455,7.791a3.566,3.566,0,0,1,1.01-3l0.023-.024,0.3-.321a3.835,3.835,0,0,0,.868.378l0.016,0.511a5.627,5.627,0,0,0,1.039,3.233A7.474,7.474,0,0,1,30.474,33.518ZM33.8,28.635a1.843,1.843,0,1,1,1.245-3.2,1.076,1.076,0,0,0,.121.135c0.019,0.018.039,0.034,0.059,0.05a1.835,1.835,0,0,1,.42,1.145,1.032,1.032,0,0,0-.008.157c0,0.007,0,.014,0,0.02A1.847,1.847,0,0,1,33.8,28.635Zm2.411,5.259a3.565,3.565,0,0,1-1.436-2.854c0-.011,0-0.023,0-0.033l-0.013-.415a3.869,3.869,0,0,0,.9-0.351l0.353,0.331a5.641,5.641,0,0,0,3.055,1.559A7.513,7.513,0,0,1,36.207,33.894Zm4.334-3.806a3.574,3.574,0,0,1-3.072-1l-0.024-.023L37.162,28.8a3.892,3.892,0,0,0,.4-0.905l0.453-.015a5.645,5.645,0,0,0,3.294-1.078A7.447,7.447,0,0,1,40.541,30.088Zm0.347-5.765A3.572,3.572,0,0,1,38,25.807H37.963L37.6,25.82a3.893,3.893,0,0,0-.372-0.93l0.3-.32a5.633,5.633,0,0,0,1.566-3.092A7.522,7.522,0,0,1,40.888,24.323ZM10.406,46.846L2.358,45,2.344,45a0.753,0.753,0,0,1-.264-0.133V44.038l8.327,0.6v2.212Zm0-4.294L2.2,41.965c-0.04,0-.078-0.007-0.116-0.011V41.31c0.039,0,.08-0.008.121-0.011l8.206-.587v1.84Zm0-3.922-8.327.6V38.4a0.752,0.752,0,0,1,.264-0.132l0.015,0,8.048-1.844V38.63Zm58.5-15.5H66.723a0.182,0.182,0,0,1-.181-0.181V2.258a0.182,0.182,0,0,1,.181-0.181h2.185a1.123,1.123,0,0,1,.013.181V22.944h0A1.111,1.111,0,0,1,68.907,23.125Zm-49.187.788a2.615,2.615,0,1,0,2.618,2.615A2.619,2.619,0,0,0,19.72,23.913Zm0,3.153a0.538,0.538,0,1,1,.539-0.539A0.54,0.54,0,0,1,19.72,27.067Zm5.788,7.63a2.624,2.624,0,0,0-3.7,0A2.618,2.618,0,1,0,25.508,34.7Zm-1.47,2.23a0.553,0.553,0,0,1-.762,0A0.539,0.539,0,1,1,24.038,36.927Zm9.495,1.308a2.615,2.615,0,1,0,2.618,2.615A2.619,2.619,0,0,0,33.533,38.235Zm0,3.153a0.538,0.538,0,1,1,.539-0.539A0.54,0.54,0,0,1,33.533,41.388Zm11.882-6.319a2.612,2.612,0,1,0,.767,1.849A2.6,2.6,0,0,0,45.414,35.069Zm-1.47,2.23a0.553,0.553,0,0,1-.762,0A0.539,0.539,0,1,1,43.944,37.3Zm3.928-12.86a2.615,2.615,0,1,0,2.618,2.615A2.62,2.62,0,0,0,47.872,24.439Zm0,3.153a0.538,0.538,0,1,1,.539-0.538A0.539,0.539,0,0,1,47.872,27.592Zm13.59-15.2a1.039,1.039,0,0,0-1.04,1.038v1.8a1.04,1.04,0,0,0,2.079,0v-1.8A1.039,1.039,0,0,0,61.462,12.391Z"/>
</svg>
