<svg xmlns="http://www.w3.org/2000/svg" width="67" height="51" viewBox="0 0 67 51">
  <metadata><?xpacket begin="﻿" id="W5M0MpCehiHzreSzNTczkc9d"?>
<x:xmpmeta xmlns:x="adobe:ns:meta/" x:xmptk="Adobe XMP Core 5.6-c142 79.160924, 2017/07/13-01:06:39        ">
   <rdf:RDF xmlns:rdf="http://www.w3.org/1999/02/22-rdf-syntax-ns#">
      <rdf:Description rdf:about=""/>
   </rdf:RDF>
</x:xmpmeta>
                                                                                                    
                                                                                                    
                                                                                                    
                                                                                                    
                                                                                                    
                                                                                                    
                                                                                                    
                                                                                                    
                                                                                                    
                                                                                                    
                                                                                                    
                                                                                                    
                                                                                                    
                                                                                                    
                                                                                                    
                                                                                                    
                                                                                                    
                                                                                                    
                                                                                                    
                                                                                                    
                           
<?xpacket end="w"?></metadata>
<defs>
    <style>
      .cls-1 {
        fill: #fda95e;
        fill-rule: evenodd;
      }
    </style>
  </defs>
  <path id="иконка" class="cls-1" d="M5.087,11.352H15.438a0.994,0.994,0,0,0,0-1.988H5.087A0.994,0.994,0,0,0,5.087,11.352Zm10,4.784H10.994a0.994,0.994,0,0,0,0,1.987h4.089A0.994,0.994,0,0,0,15.083,16.136Zm-14.1,6.89H10.994a0.993,0.993,0,0,0,0-1.987H0.982A0.993,0.993,0,0,0,.982,23.026ZM16.419,40.642a0.988,0.988,0,0,0-.982-0.994H5.087a0.994,0.994,0,0,0,0,1.988H15.438A0.987,0.987,0,0,0,16.419,40.642Zm-1.336-7.765H10.994a0.994,0.994,0,0,0,0,1.987h4.089A0.994,0.994,0,0,0,15.083,32.877Zm-3.107-3.909a0.988,0.988,0,0,0-.981-0.994H0.982a0.994,0.994,0,0,0,0,1.987H10.994A0.987,0.987,0,0,0,11.975,28.968ZM41.813,13.554a0.988,0.988,0,0,0,.981-0.993V11.043a0.982,0.982,0,1,0-1.963,0V12.56A0.987,0.987,0,0,0,41.813,13.554ZM52.6,14.575a0.973,0.973,0,0,0-1.388,0l-1.059,1.073a1,1,0,0,0,0,1.4,0.973,0.973,0,0,0,1.388,0L52.6,15.98A1,1,0,0,0,52.6,14.575Zm1.99,9.932a0.994,0.994,0,0,0,0,1.987h1.5a0.994,0.994,0,0,0,0-1.987h-1.5Zm-3.05,9.441a0.973,0.973,0,0,0-1.388,0,1,1,0,0,0,0,1.4l1.059,1.072a0.972,0.972,0,0,0,1.388,0,1,1,0,0,0,0-1.4ZM40.832,38.44v1.516a0.982,0.982,0,1,0,1.963,0V38.44A0.982,0.982,0,1,0,40.832,38.44Zm-8.75-4.492L31.023,35.02a1,1,0,0,0,0,1.4,0.971,0.971,0,0,0,1.388,0l1.059-1.072a1,1,0,0,0,0-1.4A0.973,0.973,0,0,0,32.082,33.948Zm-4.547-9.441a0.994,0.994,0,0,0,0,1.987h1.5a0.994,0.994,0,0,0,0-1.987h-1.5Zm5.935-8.859L32.41,14.575a0.973,0.973,0,0,0-1.388,0,1,1,0,0,0,0,1.4l1.059,1.073a0.973,0.973,0,0,0,1.388,0A1,1,0,0,0,33.47,15.648ZM47.091,25.5a0.987,0.987,0,0,0-.981-0.993H42.795V17.129a0.982,0.982,0,1,0-1.963,0V25.5a0.988,0.988,0,0,0,.981.994h4.3A0.988,0.988,0,0,0,47.091,25.5Zm13.332-.163a0.989,0.989,0,0,0,.92-1.052,19.577,19.577,0,1,0-19.53,21.028,19.654,19.654,0,0,0,19.35-16.847,0.982,0.982,0,1,0-1.941-.295,17.848,17.848,0,1,1,.162-3.764,0.987,0.987,0,0,0,1.039.931h0ZM41.813,0a24.918,24.918,0,0,0-9.948,2.081H14.549a0.994,0.994,0,0,0,0,1.988H28.173a25.254,25.254,0,0,0-5.033,4.32,1,1,0,0,0,.069,1.4,0.974,0.974,0,0,0,1.386-.07A23.146,23.146,0,0,1,41.813,1.987,23.514,23.514,0,1,1,18.59,25.5a23.641,23.641,0,0,1,3.7-12.743A1,1,0,0,0,22,11.382a0.975,0.975,0,0,0-1.357.3A25.7,25.7,0,0,0,28.18,46.932H14.549a0.994,0.994,0,0,0,0,1.988h17.3A24.788,24.788,0,0,0,41.813,51,25.5,25.5,0,0,0,41.813,0Z"/>
</svg>
