<svg xmlns="http://www.w3.org/2000/svg" width="66" height="18" viewBox="0 0 66 18">
  <metadata><?xpacket begin="﻿" id="W5M0MpCehiHzreSzNTczkc9d"?>
<x:xmpmeta xmlns:x="adobe:ns:meta/" x:xmptk="Adobe XMP Core 5.6-c142 79.160924, 2017/07/13-01:06:39        ">
   <rdf:RDF xmlns:rdf="http://www.w3.org/1999/02/22-rdf-syntax-ns#">
      <rdf:Description rdf:about=""/>
   </rdf:RDF>
</x:xmpmeta>
                                                                                                    
                                                                                                    
                                                                                                    
                                                                                                    
                                                                                                    
                                                                                                    
                                                                                                    
                                                                                                    
                                                                                                    
                                                                                                    
                                                                                                    
                                                                                                    
                                                                                                    
                                                                                                    
                                                                                                    
                                                                                                    
                                                                                                    
                                                                                                    
                                                                                                    
                                                                                                    
                           
<?xpacket end="w"?></metadata>
<defs>
    <style>
      .cls-1 {
        fill: #ffd29a;
        fill-rule: evenodd;
      }
    </style>
  </defs>
  <path id="стрелка" class="cls-1" d="M11.878,1.838a1.087,1.087,0,0,1,1.819.794,49.964,49.964,0,0,1-1.48,8.464C28.163,2.11,46.841-1.783,64.969,1.352a0.63,0.63,0,0,1-.177,1.232C47.7,1.02,30.861,3.752,15.66,11.678a49.582,49.582,0,0,1,8.032,2.671,1.086,1.086,0,0,1-.3,2.121A126.3,126.3,0,0,0,2.041,17.979a1.093,1.093,0,0,1-1.185-1.6A86.812,86.812,0,0,1,11.878,1.838ZM11.534,12.112a1.092,1.092,0,0,1-1.471-1.268A48.006,48.006,0,0,0,11.122,5.9,84.081,84.081,0,0,0,3.9,15.56a129.473,129.473,0,0,1,13.489-1.181,50.417,50.417,0,0,0-5.109-1.218A0.944,0.944,0,0,1,11.534,12.112Z"/>
</svg>
