<svg xmlns="http://www.w3.org/2000/svg" width="92" height="125" viewBox="0 0 92 125">
  <metadata><?xpacket begin="﻿" id="W5M0MpCehiHzreSzNTczkc9d"?>
<x:xmpmeta xmlns:x="adobe:ns:meta/" x:xmptk="Adobe XMP Core 5.6-c142 79.160924, 2017/07/13-01:06:39        ">
   <rdf:RDF xmlns:rdf="http://www.w3.org/1999/02/22-rdf-syntax-ns#">
      <rdf:Description rdf:about=""/>
   </rdf:RDF>
</x:xmpmeta>
                                                                                                    
                                                                                                    
                                                                                                    
                                                                                                    
                                                                                                    
                                                                                                    
                                                                                                    
                                                                                                    
                                                                                                    
                                                                                                    
                                                                                                    
                                                                                                    
                                                                                                    
                                                                                                    
                                                                                                    
                                                                                                    
                                                                                                    
                                                                                                    
                                                                                                    
                                                                                                    
                           
<?xpacket end="w"?></metadata>
<defs>
    <style>
      .cls-1 {
        fill: #fda95e;
        fill-rule: evenodd;
      }
    </style>
  </defs>
  <path id="лого" class="cls-1" d="M90.533,90.133H82.1l-0.723-1.2a1.741,1.741,0,0,1-.052-1.7l0-.009a1.622,1.622,0,0,0-.227-2.184,0.981,0.981,0,0,1-.131-1.583,1.351,1.351,0,0,0,0-2.108,0.887,0.887,0,0,1-.077-0.838c0.629-1.058.808-2.011-.287-2.9a0.744,0.744,0,0,1-.095-0.725c0.864-1.075.974-2.085,0.1-3.046a0.609,0.609,0,0,1-.021-0.81c0.812-.935,1.32-1.867-0.221-2.9,1.108-1.29,1.514-2.549-.1-3.678a6.612,6.612,0,0,1,.453-0.7c0.7-.81.447-1.616-0.241-2.4a0.845,0.845,0,0,1-.124-0.9c0.921-1.555,1.194-2.57-.017-3.565a0.713,0.713,0,0,1-.1-1c0.164-.2.318-0.385,0.475-0.568,0.871-1.012.959-1.457,0.063-2.453a1.8,1.8,0,0,1-.175-2.4c1.3-2.479,2.538-4.994,3.636-7.566a9.27,9.27,0,0,0,.7-3.486C85,33.834,84.887,26.258,85,18.684a10.537,10.537,0,0,0-4.99-9.469,30.041,30.041,0,0,0-10.9-4.3,55.149,55.149,0,0,0-15.591-.737,26.384,26.384,0,0,0-11.5,3.16A22.063,22.063,0,0,0,38.443,10a4.545,4.545,0,0,0-1.572,3.988c0.2,2.391.135,4.8,0.215,7.206a0.828,0.828,0,0,1-1,1.038c-2.295-.11-4.592-0.167-6.887-0.279a29.887,29.887,0,0,0-12.945,2.25,25.07,25.07,0,0,0-5.45,3.171c-1.93,1.454-2.533,3.754-2.565,6.035-0.105,7.465-.075,14.931-0.069,22.4a16.991,16.991,0,0,0,1.912,7.984,2.485,2.485,0,0,1-.265,3.232,1.7,1.7,0,0,0-.115,2.5,1.152,1.152,0,0,1,.116,1.056,1.9,1.9,0,0,0,.16,2.809l0,0a0.715,0.715,0,0,1,.041.885,4.141,4.141,0,0,1-.465.572,1.019,1.019,0,0,0-.18,1.354,1.549,1.549,0,0,1-.092,1.311,2.041,2.041,0,0,0-.127,2.52,1.046,1.046,0,0,1,0,.951,1.891,1.891,0,0,0,0,2.227,1.467,1.467,0,0,1,.047,1.224A2.5,2.5,0,0,0,9.05,87.11a1.384,1.384,0,0,1-.083,1.211c-0.58.691-.6,1.274,0.236,2.081H0.1c0-3.846,0-7.655,0-11.463Q0.111,48.562.129,18.185c0-5.609.032-11.219-.01-16.828C0.11,0.324.389,0,1.457,0Q45.39,0.04,89.324,0a1.052,1.052,0,0,1,1.289,1.3q-0.037,43.818-.022,87.634C90.59,89.3,90.557,89.652,90.533,90.133ZM13.121,70.371a3.4,3.4,0,0,0-.231-0.457c-1.094-1.568-1.116-1.583.1-3.054a1.308,1.308,0,0,0,.238-1.562,28.334,28.334,0,0,1-2.559-8.418c-0.039-.4-0.135-0.79-0.135-1.185q0-10.323.026-20.646c0-.383.047-0.766,0.082-1.312,1.252,0.9,2.114,1.635,2.078,3.28C12.6,42.658,12.708,48.3,12.67,53.946a29.855,29.855,0,0,0,2.111,11.837,1.565,1.565,0,0,1-.341,2.044c-0.625.54-.461,1.026,0.075,1.548a20.182,20.182,0,0,0,8.505,4.75c0.7,0.213,1.413.4,2.093,0.675-1.687.369-6.624-.224-11.069-3.484-0.827.556-.439,1.048,0.077,1.545a19.442,19.442,0,0,0,9.312,4.985c0.532,0.123,1.385.3,1.913,0.432,0.056,0.015,0,.064.045,0.119-1.793.921-7.881-1.111-11.06-3.644-0.752.32-.748,0.782-0.23,1.323a17.09,17.09,0,0,0,9.519,5.069c0.2,0.035.39,0.075,0.583,0.123,0.045,0.012.09,0.023,0.135,0.036a0.283,0.283,0,0,1-.1.552H24.228a20.525,20.525,0,0,1-6.4-1.284,11.222,11.222,0,0,1-2.9-1.634,0.77,0.77,0,0,0-.848-0.222,0.561,0.561,0,0,0-.111.883A20.886,20.886,0,0,0,24.912,85.23c-1.654.888-5.85-.335-10.437-2.978a0.555,0.555,0,0,0-.788.229,1.016,1.016,0,0,0,.458,1.006,18.6,18.6,0,0,0,8.316,4.9c0.69,0.2,1.513.328,2.29,0.534-2.189.853-6.236-.292-10.084-2.791a0.545,0.545,0,0,0-.7.084l-0.007.008a0.513,0.513,0,0,0,.032.724c0.638,0.586,1.237,1.145,1.86,1.676,0.668,0.569,1.509,1.214,2.2,1.759,0.055,0.1.009,0.111-.1,0.343-1.108-.261-2.456-0.558-3.564-0.819a4.055,4.055,0,0,0-1.173.984c-1.695-.7-1.719-0.818-0.793-2.161A0.9,0.9,0,0,0,12.47,87.9c-0.961-1.168-.857-2.178.374-3.017-1.331-2.357-1.331-2.357.035-4.29-0.167-.289-0.334-0.608-0.529-0.908a1.39,1.39,0,0,1,.132-2.032,1.12,1.12,0,0,0,.141-1.083c-0.736-.912-0.429-1.575.318-2.234a2.75,2.75,0,0,0,.367-0.5C11.88,71.585,11.88,71.585,13.121,70.371ZM24.566,70.9c-1.755-.648-3.518-1.276-5.264-1.948-2.218-.853-2.746-2.823-3.027-4.849a49.491,49.491,0,0,1-.509-5.959c-0.073-4.369-.024-8.739-0.013-13.109,0-.6.068-1.209,0.114-1.974,0.486,0.161.815,0.273,1.146,0.379,1.457,0.466,2.9,1.007,4.38,1.365a1.245,1.245,0,0,1,1.14,1.483c-0.052,4.4-.015,8.811-0.044,13.217a32.737,32.737,0,0,0,1.869,10.172c0.113,0.324.284,0.77,0.4,1.094A0.212,0.212,0,0,1,24.566,70.9ZM28.7,71.322c-1.8.422-2.743-.057-3.138-1.706a37.53,37.53,0,0,1-1.422-10.636c0.161-3.337-.031-6.69-0.034-10.037,0-1.11.1-2.221,0.151-3.214a1.469,1.469,0,0,1,.273-0.16c3.245,0,3.246,0,3.244,3.168,0,3.565.012,7.131-.012,10.7a60.962,60.962,0,0,0,.934,11.377A2.832,2.832,0,0,1,28.7,71.322Zm28.66-20.15a21.962,21.962,0,0,0,.8,3.613c0.153,0.6.307,1.194-.453,1.441-0.8.259-1.75,0.6-2.119-.549A21.6,21.6,0,0,1,54.3,50.759c-0.268-3.767-.28-7.554-0.331-11.335-0.042-3.095,0-6.191.03-9.286,0-.5-0.15-1.241.762-1.1,1.9,0.286,2.089.043,2.078,1.2C56.81,33.33,57.1,46.835,57.357,51.171Zm25.182-33.8c0.034,0.32.087,0.6,0.088,0.874,0.011,6.989.069,13.978,0,20.965a18.678,18.678,0,0,1-3.491,10.509c-0.181.263-.423,0.486-0.847,0.966a7.273,7.273,0,0,1,.232-0.916,25.454,25.454,0,0,0,2.047-10.5c-0.006-6.188.043-12.376-.04-18.563A3.36,3.36,0,0,1,82.539,17.375Zm-5.656,10.2c0,2.325,0,4.538,0,6.752,0,2.582.088,5.17-.018,7.748a17.42,17.42,0,0,1-5.243,12.211,10.885,10.885,0,0,1-1.454,1.021l-0.209-.22c0.358-.564.7-1.143,1.078-1.69a18.844,18.844,0,0,0,3.4-10.857c0.038-4.039-.025-8.078-0.023-12.118C74.415,28.212,74.434,28.212,76.884,27.58ZM47.223,44.408c0,1.573.021,3.127,0,4.68-0.066,4.073-.059,8.151-0.265,12.216a14.433,14.433,0,0,1-1.907,6.431c-0.943,1.658-1.275,1.946-3.438,2.322a7.557,7.557,0,0,1,.546-1.076,15.38,15.38,0,0,0,2.727-9.144c0.088-4.365.032-8.734,0.048-13.1C44.938,44.778,44.979,44.745,47.223,44.408Zm-1.5-34.519c5.058-3.65,21.8-4.244,28.772.38l-0.975.22,3.5,5.194a3.45,3.45,0,0,1-2.7-1.147,30.561,30.561,0,0,1-3.32-4.434,2.209,2.209,0,0,0-1.7-1.282q-3.8-.468-7.6-0.871a17.4,17.4,0,0,0-2.518-.08c2.492,1.412,5.25,1.529,8.073,1.338l0.014,0.4a3.66,3.66,0,0,1-.792.433,17.533,17.533,0,0,1-9.171-.376,1.511,1.511,0,0,1-.695-0.308c-1.8-1.934-3.933-1.131-5.991-.7C49.078,8.975,47.551,9.424,45.723,9.889Zm0.108,18.552-1.252-.277a11.745,11.745,0,0,0,3.765,4.7,1.7,1.7,0,0,1-.689.17c-2.233-.986-4.372-2.124-5.354-4.541a2.736,2.736,0,0,0-2.553-1.942c-2.315-.2-4.612-0.6-6.919-0.9a7.4,7.4,0,0,0-.949-0.006l-0.063.382,6.633,1.323,0.077,0.17a5.33,5.33,0,0,1-1.2.35c-2.878.146-5.766,0.321-8.526-.785a3.909,3.909,0,0,1-1.439-.746,2.543,2.543,0,0,0-2.709-.579c-2.481.5-4.968,0.968-7.332,1.427C21.167,23.177,40.723,23.887,45.831,28.441Zm6.18,5.293a3.686,3.686,0,0,1,.148.647c-0.02,6.764-.023,13.528-0.082,20.293a17.748,17.748,0,0,1-3.2,9.557c0.05-.254.084-0.512,0.154-0.76a38.227,38.227,0,0,0,1.624-11.264c-0.1-5.018.024-10.039-.068-15.057A5.667,5.667,0,0,1,52.011,33.734ZM45.434,21.227c10.835,3.382,21.641,4.054,32.407-.156A22.759,22.759,0,0,1,67.134,24.8a52.133,52.133,0,0,1-14.688-1.012c-2.087-.462-3.868-1.114-5.918-1.741a11.6,11.6,0,0,1-1.211-.467A1.642,1.642,0,0,1,45.434,21.227ZM18.506,38.61c2.266,0.444,4.388.994,6.545,1.246a68.772,68.772,0,0,0,7.708.465c2.367,0.01,4.733-.3,7.1-0.383,2.724-.09,5.024-1.358,7.39-2.466,0.381-.178.758-0.364,1.35-0.649C43.7,42.081,25.934,43.079,18.506,38.61ZM74.74,25.588c-4.809,3.216-16.37,2.488-20.287.8,3.452,0,6.874.275,10.245,0.142S71.384,25.854,74.74,25.588Zm-50.334,17.6,19.5-.338C41.559,44.9,29.034,45.246,24.405,43.186ZM24.792,26.7c-2.134,1.471-3.957,3.51-6.853,3.6-1.054.034-2.111,0.017-3.163-.043a0.946,0.946,0,0,1-.729-0.451,1.075,1.075,0,0,1,.376-0.782,3.789,3.789,0,0,1,4.021-1.163,6.371,6.371,0,0,0,4.726-.936c0.457-.248.951-0.429,1.428-0.64Zm10.972,52.25,9.714-3.209a0.753,0.753,0,0,1,.885.311c0.37,0.624.019,1.327-.9,1.8-3.034,1.574-6.32,1.662-9.683,1.251A0.081,0.081,0,0,1,35.763,78.946Zm17.1-69.581a9.066,9.066,0,0,1-6.093,3.494,27.566,27.566,0,0,1-3.907.32c-0.809.036-1.081-.443-0.462-0.969a3.851,3.851,0,0,1,2.1-1.075,13.47,13.47,0,0,0,6.952-1.473,0.966,0.966,0,0,1,.3-0.114C52.034,9.5,52.315,9.455,52.859,9.366ZM35.89,82.505c3.136-.914,6.312-1.879,9.532-2.817a0.6,0.6,0,0,1,.738.352,1.321,1.321,0,0,1-.864,1.6,13.128,13.128,0,0,1-7.352,1.225c-0.668-.042-1.381-0.15-2.046-0.227A0.068,0.068,0,0,1,35.89,82.505Zm0.1-6.885c3.145-1.148,6.219-2.266,9.447-3.444a0.749,0.749,0,0,1,.934.364,0.948,0.948,0,0,1-.62,1.334,18.641,18.641,0,0,1-9.189,1.966C36.3,75.822,35.837,75.8,35.994,75.62Zm9.169,11.456a0.633,0.633,0,0,1,.837.461,1.268,1.268,0,0,1-.912,1.45,17.612,17.612,0,0,1-8.04.9,1.861,1.861,0,0,1-.922-0.213C39.156,88.837,42.149,88.1,45.163,87.076Zm0.075-3.725a0.608,0.608,0,0,1,.769.313,1.039,1.039,0,0,1-.471,1.432c-3.047,1.549-6.307,1.573-9.626,1.091,1.645-.415,3.31-0.767,4.929-1.263C42.3,84.475,43.732,83.907,45.239,83.351ZM38.619,16.818c2.827,1.836,1.826,4.649,1.863,6.579-1.6.064-1.859-.16-1.862-1.49C38.616,20.283,38.619,18.659,38.619,16.818Zm15.926-5.97c0.246,3.71.485,7.313,0.728,10.979-0.71-.02-1.277-0.187-1.255-1,0.087-3.235.2-6.471,0.313-9.706A1,1,0,0,1,54.545,10.847ZM57.21,61.933a4.831,4.831,0,0,1-2.277-.13,3.148,3.148,0,0,1-.556-0.219,1.141,1.141,0,0,1-.725-0.919,0.974,0.974,0,0,1,1.1-.918,5.684,5.684,0,0,1,3.121.345,0.954,0.954,0,0,1,.62.856,1.064,1.064,0,0,1-.741.831A2.876,2.876,0,0,1,57.21,61.933Zm-4.23,6.548a0.472,0.472,0,0,1,.369-0.635,4.725,4.725,0,0,1,4.165-.01,2.3,2.3,0,0,1,.907.715,0.39,0.39,0,0,1-.07.526,4.218,4.218,0,0,1-.982.428,4.315,4.315,0,0,1-3.741-.5A2.07,2.07,0,0,1,52.98,68.482ZM26.5,27.811l0.564,9.527-0.431.176a2.682,2.682,0,0,1-.7-1.073c0.011-2.792.109-5.585,0.187-8.378a0.705,0.705,0,0,1,.128-0.254H26.5ZM70,12.246c0.125,1.066.289,2.128,0.365,3.2,0.127,1.77.221,3.543,0.269,5.317a1.91,1.91,0,0,1-.493.777,1.9,1.9,0,0,1-.519-0.752c-0.028-2.753,0-5.507.012-8.261a0.79,0.79,0,0,1,.118-0.272ZM53.424,72.339a0.514,0.514,0,0,1,.323-0.641,5.986,5.986,0,0,1,3.959.151,0.72,0.72,0,0,1,.189,1.293c-0.864.613-3.662,0.29-4.334-.525A0.815,0.815,0,0,1,53.424,72.339ZM27.363,84.063c0.852,0.1,1.156.347,1.175,1.027-0.045.869-.742,0.958-1.431,0.925a1.023,1.023,0,0,1-1.149-1.127A1.149,1.149,0,0,1,27.363,84.063Zm13.2-54.748q0.177,3.6.355,7.192l-0.3.02c-0.581-2.364-.331-4.784-0.386-7.184Zm-14,52.754a1.318,1.318,0,0,1-.4-0.347,0.554,0.554,0,0,1,.15-0.842,2.1,2.1,0,0,1,.836-0.264c0.809-.078,1.723.015,1.639,0.764a1.091,1.091,0,0,1-.583.738A2.128,2.128,0,0,1,26.566,82.069ZM26.348,89.2l-0.014-.014a0.593,0.593,0,0,1,.117-0.975,1.777,1.777,0,0,1,.8-0.308c0.7-.041,1.666.143,1.473,0.989a0.57,0.57,0,0,1-.137.247A1.647,1.647,0,0,1,26.348,89.2Zm0.343-10.574-0.065-.058a0.7,0.7,0,0,1,.257-1.213,1.969,1.969,0,0,1,.807-0.211,1.308,1.308,0,0,1,.683.261A0.684,0.684,0,0,1,28.4,78.6l-0.126.092A1.349,1.349,0,0,1,26.691,78.624Zm0.363-3.665L26.843,74.8a0.681,0.681,0,0,1,.121-1.2,1.092,1.092,0,0,1,.592-0.169,1.84,1.84,0,0,1,.855.379,0.661,0.661,0,0,1,.066,1.1l-0.015.013A1.189,1.189,0,0,1,27.054,74.959ZM50.671,29.291l-3.4-2.5C49.23,26.939,50.731,27.987,50.671,29.291Zm6.516,36.475a4.416,4.416,0,0,1-1.92-.024,8.744,8.744,0,0,1-1.515-.515,0.645,0.645,0,0,1-.451-0.6,0.853,0.853,0,0,1,.538-0.64,5.891,5.891,0,0,1,4.416.084,0.733,0.733,0,0,1,.021,1.363A6.071,6.071,0,0,1,57.187,65.766Zm-2.309,9.387a3.875,3.875,0,0,1,1.49.106,10.357,10.357,0,0,1,1.5.546c0.723,0.324.757,0.956,0.091,1.26a4.822,4.822,0,0,1-4.506-.111A1.079,1.079,0,0,1,53,76.087a1.113,1.113,0,0,1,.684-0.66A6.8,6.8,0,0,1,54.878,75.153Zm-1.555,5.672a0.536,0.536,0,0,1,0-.963c1.346-.668,3.806-0.877,4.651-0.272a0.912,0.912,0,0,1,.5.888,1.145,1.145,0,0,1-.617.59,5.694,5.694,0,0,1-4.52-.241Zm1.73,2.2a7.665,7.665,0,0,1,2.595.361,0.723,0.723,0,0,1,.464.532,0.581,0.581,0,0,1-.376.636,5.093,5.093,0,0,1-4.706.058,0.79,0.79,0,0,1-.567-0.8,0.768,0.768,0,0,1,.709-0.545A7.339,7.339,0,0,1,55.052,83.022Zm2.113,6.071a5.117,5.117,0,0,1-3.2.055c-0.274-.083-0.545-0.172-0.808-0.28a0.958,0.958,0,0,1-.648-0.753,1.227,1.227,0,0,1,.626-0.74,4.465,4.465,0,0,1,4.322.092,0.878,0.878,0,0,1,.465.863,1,1,0,0,1-.739.756Zm4.815-26.2a0.883,0.883,0,0,1,.266-0.633A27.221,27.221,0,0,0,74.631,59.3a1.912,1.912,0,0,1,1.649-.1,0.788,0.788,0,0,1,.129,1.373C72.609,63.156,65.27,64.059,61.98,62.892Zm0.053,3.631a0.74,0.74,0,0,1,.033-0.364,23.735,23.735,0,0,0,2.929.03c3.434-.216,6.374-1.432,9.515-2.674a2.153,2.153,0,0,1,1.894-.036,0.7,0.7,0,0,1,.071,1.169C73.635,66.738,65.1,68.037,62.034,66.523Zm0.078,7.467c1.494-.189,3.049-0.373,4.588-0.566a46.27,46.27,0,0,0,8.129-2.218,1.569,1.569,0,0,1,1.229,0,0.662,0.662,0,0,1,.049,1.18l-0.1.057c-4.23,2.367-8.564,2.519-13.239,1.915a3.068,3.068,0,0,1-.669-0.134C62.112,74.132,62.1,74.086,62.112,73.99Zm14.425,1.2a0.891,0.891,0,0,1-.391.947,8.957,8.957,0,0,1-2.137,1.1,22.65,22.65,0,0,1-11.7,1.238,0.207,0.207,0,0,1-.119-0.017,1.222,1.222,0,0,1,.06-0.6,3.22,3.22,0,0,1,.523-0.044,33.106,33.106,0,0,0,5.008-.581,20.309,20.309,0,0,0,6.7-2.116c0.492-.3,1.621-0.743,2.055.062v0ZM62.27,70.269c0.754-.031,1.9-0.122,2.726-0.19a32.225,32.225,0,0,0,9.528-2.6,1.9,1.9,0,0,1,1.838.108,0.587,0.587,0,0,1-.016,1.035,22,22,0,0,1-14.093,1.969Zm-0.362,15.5a1.185,1.185,0,0,1,.1-0.224,0.136,0.136,0,0,1,.135-0.1c3.76,0.264,7.731-.78,11.217-1.951a4.512,4.512,0,0,1,2.42-.4,0.5,0.5,0,0,1,.216.861C73.3,86.253,64.279,87.151,61.907,85.766ZM76.834,56.26c-2.69,2.413-12.777,4.183-14.742,3.265a3.2,3.2,0,0,1,.075-0.483,10.79,10.79,0,0,0,2.511-.139,31.728,31.728,0,0,0,9.785-3.29,2.326,2.326,0,0,1,2.235-.049A0.417,0.417,0,0,1,76.834,56.26ZM76.016,88.044c-3.245,1.79-11.287,2.715-13.969,1.8a0.99,0.99,0,0,1-.272-0.121,0.866,0.866,0,0,1,.149-0.432,29.712,29.712,0,0,0,11.821-2.152c0.826-.337,1.733-0.878,2.592-0.189l0.006,0A0.74,0.74,0,0,1,76.016,88.044Zm-13.9-6.116a32.766,32.766,0,0,0,4.928-.628,34.62,34.62,0,0,0,7-1.971c0.7-.2,1.341-0.68,2.192-0.336a0.86,0.86,0,0,1,.495.67,1,1,0,0,1-.689.878,21.707,21.707,0,0,1-8.571,2c-1.454.085-5.087-.028-5.433-0.1C62.057,82.323,62.1,82.049,62.116,81.927ZM3.479,121.353L1.1,119.125H0.02V124.9H1.3v-4.035l2.183,2.041,2.188-2.041V124.9H6.943v-5.778H5.865Zm20.2-1.445a3.014,3.014,0,0,0-.995-0.645,3.245,3.245,0,0,0-2.361,0,3.1,3.1,0,0,0-1,.645,2.966,2.966,0,0,0-.671.962,2.809,2.809,0,0,0-.236,1.125,2.912,2.912,0,0,0,.906,2.139,3.056,3.056,0,0,0,.994.642A3.15,3.15,0,0,0,21.5,125a3.225,3.225,0,0,0,1.185-.219,3.145,3.145,0,0,0,1.005-.649,2.9,2.9,0,0,0,.665-0.955,2.84,2.84,0,0,0,.234-1.134A2.873,2.873,0,0,0,23.681,119.908Zm-0.259,2.111a1.881,1.881,0,0,1-.145.731,1.905,1.905,0,0,1-.416.617,1.86,1.86,0,0,1-.619.417,2,2,0,0,1-1.484,0,1.83,1.83,0,0,1-.616-0.413,1.889,1.889,0,0,1-.413-0.616,1.908,1.908,0,0,1-.144-0.732,1.946,1.946,0,0,1,.144-0.739,1.8,1.8,0,0,1,.412-0.61,2.045,2.045,0,0,1,.634-0.421A1.869,1.869,0,0,1,21.5,120.1a1.913,1.913,0,0,1,.737.144,1.866,1.866,0,0,1,.618.421,1.986,1.986,0,0,1,.426.628A1.849,1.849,0,0,1,23.422,122.019ZM25.84,98.762a8.483,8.483,0,0,0-2.814-1.872,8.956,8.956,0,0,0-6.68-.006,8.709,8.709,0,0,0-2.828,1.875,8.575,8.575,0,0,0-1.9,2.791,8.357,8.357,0,0,0-.669,3.266,8.843,8.843,0,0,0,.65,3.376,8.74,8.74,0,0,0,4.726,4.7,8.7,8.7,0,0,0,3.332.656,8.675,8.675,0,0,0,6.2-2.52,8.509,8.509,0,0,0,2.544-6.067,8.784,8.784,0,0,0-.645-3.377A8.648,8.648,0,0,0,25.84,98.762Zm-1.982,6.129a4.28,4.28,0,0,1-1.224,3.014,4.044,4.044,0,0,1-1.348.931,4.258,4.258,0,0,1-3.233-.008,3.962,3.962,0,0,1-1.342-.925,4.231,4.231,0,0,1-.9-1.376,4.372,4.372,0,0,1-.313-1.636,4.448,4.448,0,0,1,.313-1.654,4.027,4.027,0,0,1,.9-1.363,4.43,4.43,0,0,1,1.382-.942,3.964,3.964,0,0,1,1.575-.328,4.02,4.02,0,0,1,2.952,1.265,4.453,4.453,0,0,1,.928,1.4A4.251,4.251,0,0,1,23.858,104.891ZM36.6,120.165h2.009V124.9h1.11v-4.738H41.73v-1.04H36.6v1.04Zm22.41-.257a3.016,3.016,0,0,0-.995-0.645,3.245,3.245,0,0,0-2.361,0,3.094,3.094,0,0,0-1,.645,2.96,2.96,0,0,0-.671.962,2.809,2.809,0,0,0-.236,1.125,2.912,2.912,0,0,0,.907,2.139,3.056,3.056,0,0,0,.994.642,3.15,3.15,0,0,0,1.178.226,3.225,3.225,0,0,0,1.185-.219,3.145,3.145,0,0,0,1.005-.649,2.9,2.9,0,0,0,.665-0.955,2.842,2.842,0,0,0,.234-1.134A2.874,2.874,0,0,0,59.012,119.908Zm-0.259,2.111a1.881,1.881,0,0,1-.145.731,1.9,1.9,0,0,1-.416.617,1.861,1.861,0,0,1-.619.417,2,2,0,0,1-1.484,0,1.819,1.819,0,0,1-.616-0.413,1.886,1.886,0,0,1-.557-1.348,1.948,1.948,0,0,1,.144-0.739,1.8,1.8,0,0,1,.412-0.61,2.046,2.046,0,0,1,.634-0.421,1.868,1.868,0,0,1,.723-0.146,1.912,1.912,0,0,1,.737.144,1.869,1.869,0,0,1,.618.421,1.977,1.977,0,0,1,.426.628A1.853,1.853,0,0,1,58.752,122.019Zm32.922,0.357a4.014,4.014,0,0,0-1.28-.905l-0.138-.069c-0.957-.5-1.06-0.766-1.06-0.858a0.377,0.377,0,0,1,.2-0.327,1.129,1.129,0,0,1,.623-0.154,1.98,1.98,0,0,1,.669.121,3.581,3.581,0,0,1,.755.4l0.259,0.174v-1.3l-0.09-.046a3.6,3.6,0,0,0-.773-0.3,3.232,3.232,0,0,0-.783-0.1,2.407,2.407,0,0,0-1.485.441,1.416,1.416,0,0,0-.6,1.174,1.319,1.319,0,0,0,.322.886,5.674,5.674,0,0,0,1.433.961,3.761,3.761,0,0,1,.857.545,0.5,0.5,0,0,1,.144.352,0.425,0.425,0,0,1-.206.376,1.2,1.2,0,0,1-.67.16,1.854,1.854,0,0,1-.788-0.172,3.058,3.058,0,0,1-.8-0.58l-0.282-.271v1.5l0.071,0.049a2.982,2.982,0,0,0,.863.421,3.544,3.544,0,0,0,1,.131,2.408,2.408,0,0,0,1.483-.44A1.4,1.4,0,0,0,92,123.4,1.624,1.624,0,0,0,91.674,122.376Zm-16.647.647a1.741,1.741,0,0,0,1.08-1.2c0.194-.7.285-2.587-1.642-2.771-0.043,0-.118-0.007-0.16-0.008H74.231c-0.21,0-.414,0-0.6,0H72.268v0.946h0v4.951h1.185v-1.687l0.247-.018c0.046,0.061,1.534,1.7,1.534,1.7h1.6Zm-1.036-.928h-0.55v-2.008h0.55a1.024,1.024,0,0,1,1.006,1A0.975,0.975,0,0,1,73.991,122.1ZM11.717,95.6H0l1.168,3.85h2.8v13.171H8.194v-9.137l-0.72-2.374h0l-0.5-1.66h4.745V95.6ZM74.161,106.55a6.062,6.062,0,0,0,2.611-5.01,5.926,5.926,0,0,0-5.88-5.971c-0.063,0-.125,0-0.187.006v0H64.288l0.962,3.175v13.859h4.228v-4.625c0.134-.02.251-0.044,0.348-0.068l2.573,4.723h5.035l0.035-.019Zm-4.534-.633c-0.05,0-.1,0-0.149-0.006v-4.274L68.254,99.1h1.257c0.03,0,.06,0,0.091,0A3.41,3.41,0,1,1,69.627,105.917ZM88,103.12s-0.7-.438-0.887-0.546c-1.345-.8-1.9-1.141-2.511-1.558a1.533,1.533,0,0,1-.757-1.082,0.98,0.98,0,0,1,1-.9,1.769,1.769,0,0,1,.659.179c0.923,0.427,3,1.687,3,1.687l1.529-2.851a21.576,21.576,0,0,0-3.539-1.919,6.03,6.03,0,0,0-4.558.174,3.912,3.912,0,0,0-2.212,2.9c-0.737,3.3,3.248,5.558,5.5,6.844,0.162,0.093.789,0.442,0.789,0.442,1.97,1.145,1.872,1.626,1.684,2.163-0.347.993-1.85,0.5-2.368,0.371-0.418-.105-4.111-1.238-6.882-2.144l2.382,4.186a8.1,8.1,0,0,0,.5.75,5.847,5.847,0,0,0,.966.433,19.413,19.413,0,0,0,2.095.638,9.14,9.14,0,0,0,2.125.266,5.026,5.026,0,0,0,5.167-3.475C92.853,105.876,89.472,103.974,88,103.12ZM44.9,95.574l0.9,3.049-1.763,7.913,0-.011L43.6,108.459H43.4v-4.74l-1.8-8.085,0.01-.044H37.28l0.01,0.044-2.429,10.9v0l-0.429,1.936h-0.2v-4.743L32.423,95.59H28.112l3.83,17.191h5.84l1-4.468V103.2h0.2l0.47,2.121,0-.011,1.664,7.471h5.839l3.842-17.207H44.9Zm11.978,9.034h2.833l1.246-3.126H56.861l-0.822-2.258h0.994l4.651-.009,1.461-3.632-11.216-.009,0.717,1.962v15.072h4.228v0h4.8v-3.639h-4.8v-4.354Z"/>
</svg>
